STARTFONT 2.1
FONT -FontForge-ITC Benguiat Gothic Std-Bold-R-Normal--18-170-75-75-P-94-ISO8859-1
SIZE 17 75 75
FONTBOUNDINGBOX 21 21 -3 -4
COMMENT "Generated by fontforge, http://fontforge.sourceforge.net"
COMMENT "Copyright 1990, 1995 , 2002Adobe Systems Incorporated. All Rights Reserved. ITC Benguiat Gothic is a registered trademark of International Typeface Corporation."
STARTPROPERTIES 40
FOUNDRY "FontForge"
FAMILY_NAME "ITC Benguiat Gothic Std"
WEIGHT_NAME "Bold"
SLANT "R"
SETWIDTH_NAME "Normal"
ADD_STYLE_NAME ""
PIXEL_SIZE 18
POINT_SIZE 170
RESOLUTION_X 75
RESOLUTION_Y 75
SPACING "P"
AVERAGE_WIDTH 94
CHARSET_REGISTRY "ISO8859"
CHARSET_ENCODING "1"
FONTNAME_REGISTRY ""
CHARSET_COLLECTIONS "ISOLatin1Encoding"
FONT_NAME "BenguiatGothicStd-Bold"
FACE_NAME "ITC Benguiat Gothic Std Bold"
COPYRIGHT "Copyright 1990, 1995 , 2002Adobe Systems Incorporated. All Rights Reserved. ITC Benguiat Gothic is a registered trademark of International Typeface Corporation."
FONT_VERSION "001.001"
FONT_ASCENT 12
FONT_DESCENT 6
UNDERLINE_POSITION -2
UNDERLINE_THICKNESS 1
X_HEIGHT 9
CAP_HEIGHT 12
RAW_ASCENT 691
RAW_DESCENT 309
NORM_SPACE 5
RELATIVE_WEIGHT 70
RELATIVE_SETWIDTH 50
SUPERSCRIPT_X 0
SUPERSCRIPT_Y 6
SUPERSCRIPT_SIZE 10
SUBSCRIPT_X 0
SUBSCRIPT_Y 1
SUBSCRIPT_SIZE 10
FIGURE_WIDTH 11
AVG_LOWERCASE_WIDTH 92
AVG_UPPERCASE_WIDTH 109
ENDPROPERTIES
CHARS 253
STARTCHAR space
ENCODING 32
SWIDTH 305 0
DWIDTH 5 0
BBX 1 1 0 0
BITMAP
00
ENDCHAR
STARTCHAR exclam
ENCODING 33
SWIDTH 333 0
DWIDTH 6 0
BBX 2 13 2 0
BITMAP
C0
C0
C0
C0
C0
C0
C0
C0
C0
00
C0
C0
C0
ENDCHAR
STARTCHAR quotedbl
ENCODING 34
SWIDTH 333 0
DWIDTH 6 0
BBX 4 5 1 8
BITMAP
90
90
90
90
90
ENDCHAR
STARTCHAR numbersign
ENCODING 35
SWIDTH 611 0
DWIDTH 11 0
BBX 9 13 1 0
BITMAP
1300
1300
3300
3300
FF80
FF80
3600
FF00
FF00
6600
6600
6400
6400
ENDCHAR
STARTCHAR dollar
ENCODING 36
SWIDTH 611 0
DWIDTH 11 0
BBX 9 15 1 -2
BITMAP
1800
1800
7F00
FF00
C000
FC00
7F80
1B80
1980
1980
FF80
FE00
1800
1800
0800
ENDCHAR
STARTCHAR percent
ENCODING 37
SWIDTH 944 0
DWIDTH 17 0
BBX 15 13 1 0
BITMAP
7860
FC60
CCC0
CCC0
CD80
FD80
7BB8
037E
0766
0666
0E66
0C7E
0C3C
ENDCHAR
STARTCHAR ampersand
ENCODING 38
SWIDTH 778 0
DWIDTH 14 0
BBX 12 13 1 0
BITMAP
1E00
3F00
7300
7360
3760
7E60
FE60
CF60
C3E0
C1C0
E3E0
7FF0
3E30
ENDCHAR
STARTCHAR quotesingle
ENCODING 39
SWIDTH 222 0
DWIDTH 4 0
BBX 2 5 1 8
BITMAP
C0
C0
C0
C0
C0
ENDCHAR
STARTCHAR parenleft
ENCODING 40
SWIDTH 389 0
DWIDTH 7 0
BBX 5 17 1 -4
BITMAP
18
38
30
70
60
E0
C0
C0
C0
C0
C0
E0
60
70
30
38
18
ENDCHAR
STARTCHAR parenright
ENCODING 41
SWIDTH 389 0
DWIDTH 7 0
BBX 5 17 1 -4
BITMAP
C0
C0
60
70
30
38
18
18
18
18
18
38
30
70
60
C0
C0
ENDCHAR
STARTCHAR asterisk
ENCODING 42
SWIDTH 444 0
DWIDTH 8 0
BBX 6 6 1 7
BITMAP
30
FC
FC
78
FC
30
ENDCHAR
STARTCHAR plus
ENCODING 43
SWIDTH 600 0
DWIDTH 11 0
BBX 9 10 1 0
BITMAP
1800
1800
1800
1800
FF80
FF80
1800
1800
1800
1800
ENDCHAR
STARTCHAR comma
ENCODING 44
SWIDTH 305 0
DWIDTH 5 0
BBX 3 5 1 -2
BITMAP
60
60
E0
C0
C0
ENDCHAR
STARTCHAR hyphen
ENCODING 45
SWIDTH 333 0
DWIDTH 6 0
BBX 4 2 1 4
BITMAP
F0
F0
ENDCHAR
STARTCHAR period
ENCODING 46
SWIDTH 305 0
DWIDTH 5 0
BBX 3 3 1 0
BITMAP
40
E0
60
ENDCHAR
STARTCHAR slash
ENCODING 47
SWIDTH 278 0
DWIDTH 5 0
BBX 5 13 0 0
BITMAP
08
18
18
38
30
30
70
60
60
E0
C0
C0
80
ENDCHAR
STARTCHAR zero
ENCODING 48
SWIDTH 611 0
DWIDTH 11 0
BBX 9 13 1 0
BITMAP
3E00
7F00
E380
E380
C180
C180
C180
C180
C180
E380
E380
7F00
3E00
ENDCHAR
STARTCHAR one
ENCODING 49
SWIDTH 611 0
DWIDTH 11 0
BBX 8 13 2 0
BITMAP
18
F8
F8
18
18
18
18
18
18
18
18
FF
FF
ENDCHAR
STARTCHAR two
ENCODING 50
SWIDTH 611 0
DWIDTH 11 0
BBX 9 13 1 0
BITMAP
FE00
FF00
0380
0380
0380
0F00
1E00
7C00
F000
E000
C000
FF80
FF80
ENDCHAR
STARTCHAR three
ENCODING 51
SWIDTH 611 0
DWIDTH 11 0
BBX 9 13 1 0
BITMAP
FF00
FF00
0F00
1C00
7E00
7F00
0380
0180
0180
0180
0380
FF00
FE00
ENDCHAR
STARTCHAR four
ENCODING 52
SWIDTH 611 0
DWIDTH 11 0
BBX 11 13 0 0
BITMAP
0700
0F80
1F80
3B80
3380
6380
6380
E380
FFE0
FFE0
0380
0380
0300
ENDCHAR
STARTCHAR five
ENCODING 53
SWIDTH 611 0
DWIDTH 11 0
BBX 10 13 1 0
BITMAP
7F00
FF00
E000
E000
FE00
FF00
0380
0180
01C0
01C0
0380
FF80
FE00
ENDCHAR
STARTCHAR six
ENCODING 54
SWIDTH 611 0
DWIDTH 11 0
BBX 10 13 1 0
BITMAP
1F80
7F80
7000
E000
DE00
FF80
E380
C180
C1C0
C180
E380
7F00
3E00
ENDCHAR
STARTCHAR seven
ENCODING 55
SWIDTH 611 0
DWIDTH 11 0
BBX 9 13 1 0
BITMAP
FF80
FF80
0380
0300
0700
0600
0E00
1C00
1800
3800
3800
3800
1800
ENDCHAR
STARTCHAR eight
ENCODING 56
SWIDTH 611 0
DWIDTH 11 0
BBX 11 13 0 0
BITMAP
1F00
3F80
71C0
71C0
71C0
3F80
3F80
71C0
E0E0
E0E0
71C0
7FC0
1F00
ENDCHAR
STARTCHAR nine
ENCODING 57
SWIDTH 611 0
DWIDTH 11 0
BBX 10 13 0 0
BITMAP
1F00
3F80
71C0
61C0
E0C0
60C0
71C0
7FC0
1EC0
01C0
0380
7F80
7E00
ENDCHAR
STARTCHAR colon
ENCODING 58
SWIDTH 305 0
DWIDTH 5 0
BBX 3 8 1 0
BITMAP
40
E0
60
00
00
40
E0
60
ENDCHAR
STARTCHAR semicolon
ENCODING 59
SWIDTH 305 0
DWIDTH 5 0
BBX 3 10 1 -2
BITMAP
40
E0
E0
00
00
60
E0
C0
C0
C0
ENDCHAR
STARTCHAR less
ENCODING 60
SWIDTH 600 0
DWIDTH 11 0
BBX 9 10 1 0
BITMAP
0080
0380
1F00
7C00
E000
E000
7C00
1F00
0380
0080
ENDCHAR
STARTCHAR equal
ENCODING 61
SWIDTH 600 0
DWIDTH 11 0
BBX 9 5 1 2
BITMAP
FF80
FF80
0000
FF80
FF80
ENDCHAR
STARTCHAR greater
ENCODING 62
SWIDTH 600 0
DWIDTH 11 0
BBX 9 10 1 0
BITMAP
8000
E000
7C00
1F00
0780
0780
1F00
7C00
E000
8000
ENDCHAR
STARTCHAR question
ENCODING 63
SWIDTH 500 0
DWIDTH 9 0
BBX 8 13 0 0
BITMAP
FE
FF
03
03
07
0E
1C
38
38
00
10
38
38
ENDCHAR
STARTCHAR at
ENCODING 64
SWIDTH 800 0
DWIDTH 14 0
BBX 13 13 1 0
BITMAP
0F80
38E0
6030
47D0
DFD8
D8D8
D090
D090
D9B0
DFE0
6480
38E0
0F80
ENDCHAR
STARTCHAR A
ENCODING 65
SWIDTH 667 0
DWIDTH 12 0
BBX 12 13 0 0
BITMAP
0600
0F00
1F00
1980
3980
31C0
3EC0
7FE0
61E0
60E0
6060
E070
6060
ENDCHAR
STARTCHAR B
ENCODING 66
SWIDTH 611 0
DWIDTH 11 0
BBX 9 13 1 0
BITMAP
FF00
FF80
C380
C380
FB00
FE00
C700
C380
C180
C180
C180
FF80
FF00
ENDCHAR
STARTCHAR C
ENCODING 67
SWIDTH 611 0
DWIDTH 11 0
BBX 10 13 1 0
BITMAP
3F80
7F80
F000
E000
C000
C000
C000
E000
E000
7000
3C00
1FC0
0780
ENDCHAR
STARTCHAR D
ENCODING 68
SWIDTH 667 0
DWIDTH 12 0
BBX 10 13 1 0
BITMAP
F800
FE00
CF00
C380
C1C0
C1C0
C0C0
C0C0
C0C0
C1C0
C3C0
FF80
FF00
ENDCHAR
STARTCHAR E
ENCODING 69
SWIDTH 556 0
DWIDTH 10 0
BBX 8 13 1 0
BITMAP
FF
FF
E0
E0
FF
FF
E0
E0
E0
E0
E0
FF
7F
ENDCHAR
STARTCHAR F
ENCODING 70
SWIDTH 500 0
DWIDTH 9 0
BBX 8 13 1 0
BITMAP
FF
FF
E0
E0
FF
FF
E0
E0
E0
E0
E0
E0
C0
ENDCHAR
STARTCHAR G
ENCODING 71
SWIDTH 722 0
DWIDTH 13 0
BBX 11 13 1 0
BITMAP
3FC0
7FC0
F000
E000
C7E0
C7E0
C060
E060
E060
7060
3C60
1FE0
07E0
ENDCHAR
STARTCHAR H
ENCODING 72
SWIDTH 611 0
DWIDTH 11 0
BBX 9 13 1 0
BITMAP
C180
C180
C180
C180
FF80
FF80
C180
C180
C180
C180
C180
C180
C180
ENDCHAR
STARTCHAR I
ENCODING 73
SWIDTH 278 0
DWIDTH 5 0
BBX 3 13 1 0
BITMAP
40
E0
E0
E0
E0
E0
E0
E0
E0
E0
E0
E0
40
ENDCHAR
STARTCHAR J
ENCODING 74
SWIDTH 444 0
DWIDTH 8 0
BBX 7 13 0 0
BITMAP
06
06
06
06
06
06
06
06
06
06
CE
FC
78
ENDCHAR
STARTCHAR K
ENCODING 75
SWIDTH 611 0
DWIDTH 11 0
BBX 10 13 1 0
BITMAP
C180
E180
E380
E700
FE00
FE00
E700
E380
E180
E180
E1C0
E1C0
C080
ENDCHAR
STARTCHAR L
ENCODING 76
SWIDTH 444 0
DWIDTH 8 0
BBX 7 13 1 0
BITMAP
C0
E0
E0
E0
E0
E0
E0
E0
E0
E0
E0
FE
7E
ENDCHAR
STARTCHAR M
ENCODING 77
SWIDTH 722 0
DWIDTH 13 0
BBX 11 13 1 0
BITMAP
60C0
71C0
71C0
FBE0
DB60
CE60
CE60
C060
C060
C060
C060
C060
C060
ENDCHAR
STARTCHAR N
ENCODING 78
SWIDTH 611 0
DWIDTH 11 0
BBX 9 13 1 0
BITMAP
E180
E180
F180
F980
DF80
CF80
C780
C180
C180
C180
C180
C180
C180
ENDCHAR
STARTCHAR O
ENCODING 79
SWIDTH 722 0
DWIDTH 13 0
BBX 11 13 1 0
BITMAP
1F00
3F80
71C0
E0E0
E0E0
C060
C060
C060
E0E0
E0E0
71C0
3F80
1F00
ENDCHAR
STARTCHAR P
ENCODING 80
SWIDTH 556 0
DWIDTH 10 0
BBX 9 13 1 0
BITMAP
FF00
FF80
E180
E380
E700
FF00
FC00
E000
E000
E000
E000
E000
C000
ENDCHAR
STARTCHAR Q
ENCODING 81
SWIDTH 722 0
DWIDTH 13 0
BBX 11 16 1 -3
BITMAP
1F00
3F80
71C0
E0E0
E0E0
C060
C060
CC60
FEE0
EFE0
73C0
3F80
1F80
01C0
01E0
00E0
ENDCHAR
STARTCHAR R
ENCODING 82
SWIDTH 611 0
DWIDTH 11 0
BBX 10 13 1 0
BITMAP
FF00
FF80
C380
C180
FF00
FE00
C700
C380
C180
C180
C1C0
C1C0
C080
ENDCHAR
STARTCHAR S
ENCODING 83
SWIDTH 611 0
DWIDTH 11 0
BBX 9 13 1 0
BITMAP
7F00
FF00
C000
E000
FC00
7F00
0780
0180
0180
0180
0380
FF00
FE00
ENDCHAR
STARTCHAR T
ENCODING 84
SWIDTH 500 0
DWIDTH 9 0
BBX 9 13 0 0
BITMAP
FF80
FF80
1C00
1C00
1C00
1C00
1C00
1C00
1C00
1C00
1C00
1C00
0800
ENDCHAR
STARTCHAR U
ENCODING 85
SWIDTH 611 0
DWIDTH 11 0
BBX 9 13 1 0
BITMAP
4300
E380
E380
E380
C180
C180
C180
C180
C180
C180
E380
7F00
3E00
ENDCHAR
STARTCHAR V
ENCODING 86
SWIDTH 611 0
DWIDTH 11 0
BBX 9 13 1 0
BITMAP
C180
C180
C180
C180
C180
E380
E300
6300
7700
3600
3E00
1C00
1C00
ENDCHAR
STARTCHAR W
ENCODING 87
SWIDTH 833 0
DWIDTH 15 0
BBX 13 13 1 0
BITMAP
C218
C718
C718
C718
C718
C718
C518
6DB0
6DB0
6DB0
78F0
38E0
3060
ENDCHAR
STARTCHAR X
ENCODING 88
SWIDTH 611 0
DWIDTH 11 0
BBX 11 13 0 0
BITMAP
60C0
61C0
71C0
3B80
1F00
1F00
3B80
3180
71C0
60C0
E0E0
E0E0
40C0
ENDCHAR
STARTCHAR Y
ENCODING 89
SWIDTH 556 0
DWIDTH 10 0
BBX 10 13 0 0
BITMAP
C0C0
E1C0
6180
7380
3300
3F00
1E00
0C00
0C00
0C00
0C00
0C00
0C00
ENDCHAR
STARTCHAR Z
ENCODING 90
SWIDTH 500 0
DWIDTH 9 0
BBX 9 13 0 0
BITMAP
7F00
7F00
0300
0300
0700
0E00
1C00
3800
7000
6000
6000
FF80
7F80
ENDCHAR
STARTCHAR bracketleft
ENCODING 91
SWIDTH 389 0
DWIDTH 7 0
BBX 5 17 1 -4
BITMAP
78
F8
E0
E0
E0
E0
E0
E0
E0
E0
E0
E0
E0
E0
E0
F8
F8
ENDCHAR
STARTCHAR backslash
ENCODING 92
SWIDTH 278 0
DWIDTH 5 0
BBX 5 13 0 0
BITMAP
80
C0
C0
E0
60
60
70
30
30
38
18
18
08
ENDCHAR
STARTCHAR bracketright
ENCODING 93
SWIDTH 389 0
DWIDTH 7 0
BBX 5 17 1 -4
BITMAP
F0
F8
38
38
38
38
38
38
38
38
38
38
38
38
38
F8
F0
ENDCHAR
STARTCHAR asciicircum
ENCODING 94
SWIDTH 600 0
DWIDTH 11 0
BBX 8 7 1 6
BITMAP
18
1C
34
36
62
63
C1
ENDCHAR
STARTCHAR underscore
ENCODING 95
SWIDTH 500 0
DWIDTH 9 0
BBX 9 1 0 -2
BITMAP
FF80
ENDCHAR
STARTCHAR grave
ENCODING 96
SWIDTH 278 0
DWIDTH 5 0
BBX 5 3 0 10
BITMAP
80
F0
38
ENDCHAR
STARTCHAR a
ENCODING 97
SWIDTH 556 0
DWIDTH 10 0
BBX 7 10 1 0
BITMAP
FC
FE
06
1E
7E
E6
C6
C6
FE
7A
ENDCHAR
STARTCHAR b
ENCODING 98
SWIDTH 556 0
DWIDTH 10 0
BBX 8 13 1 0
BITMAP
C0
C0
C0
F8
FE
CF
C7
C3
C3
C3
C3
FF
FC
ENDCHAR
STARTCHAR c
ENCODING 99
SWIDTH 500 0
DWIDTH 9 0
BBX 8 10 1 0
BITMAP
7F
FF
E0
C0
C0
C0
E0
F0
7F
1F
ENDCHAR
STARTCHAR d
ENCODING 100
SWIDTH 556 0
DWIDTH 10 0
BBX 8 13 1 0
BITMAP
03
03
03
1F
7F
F3
E3
C3
C3
C3
C3
FF
3F
ENDCHAR
STARTCHAR e
ENCODING 101
SWIDTH 556 0
DWIDTH 10 0
BBX 8 10 1 0
BITMAP
3C
7E
E7
C3
FF
FF
C0
E0
7F
3F
ENDCHAR
STARTCHAR f
ENCODING 102
SWIDTH 333 0
DWIDTH 6 0
BBX 6 13 0 0
BITMAP
3C
3C
70
FC
FC
70
70
70
70
70
70
70
20
ENDCHAR
STARTCHAR g
ENCODING 103
SWIDTH 556 0
DWIDTH 10 0
BBX 10 14 0 -4
BITMAP
0F80
3F80
7380
6380
6380
6380
6380
6380
7F80
1FC0
00C0
41C0
FF80
3F00
ENDCHAR
STARTCHAR h
ENCODING 104
SWIDTH 556 0
DWIDTH 10 0
BBX 8 13 1 0
BITMAP
C0
C0
C0
DC
FE
E7
C3
C3
C3
C3
C3
C3
C3
ENDCHAR
STARTCHAR i
ENCODING 105
SWIDTH 278 0
DWIDTH 5 0
BBX 3 13 1 0
BITMAP
C0
E0
40
40
E0
E0
E0
E0
E0
E0
E0
E0
40
ENDCHAR
STARTCHAR j
ENCODING 106
SWIDTH 222 0
DWIDTH 4 0
BBX 6 17 -3 -4
BITMAP
0C
0C
0C
0C
0C
0C
0C
0C
0C
0C
0C
0C
0C
0C
0C
FC
78
ENDCHAR
STARTCHAR k
ENCODING 107
SWIDTH 500 0
DWIDTH 9 0
BBX 8 13 1 0
BITMAP
C0
C0
C0
C6
C6
CE
FC
FC
CE
C6
C7
C3
C3
ENDCHAR
STARTCHAR l
ENCODING 108
SWIDTH 278 0
DWIDTH 5 0
BBX 3 13 1 0
BITMAP
40
E0
E0
E0
E0
E0
E0
E0
E0
E0
E0
E0
40
ENDCHAR
STARTCHAR m
ENCODING 109
SWIDTH 833 0
DWIDTH 15 0
BBX 13 10 1 0
BITMAP
DCF0
FFF0
E738
C718
C718
C718
C718
C718
C718
C218
ENDCHAR
STARTCHAR n
ENCODING 110
SWIDTH 556 0
DWIDTH 10 0
BBX 8 10 1 0
BITMAP
DC
FE
E7
C3
C3
C3
C3
C3
C3
C3
ENDCHAR
STARTCHAR o
ENCODING 111
SWIDTH 556 0
DWIDTH 10 0
BBX 8 10 1 0
BITMAP
3C
7E
E7
C3
C3
C3
C3
E7
7E
3C
ENDCHAR
STARTCHAR p
ENCODING 112
SWIDTH 556 0
DWIDTH 10 0
BBX 8 14 1 -4
BITMAP
F8
FE
CF
C3
C3
C3
C3
C7
FF
FC
C0
C0
C0
C0
ENDCHAR
STARTCHAR q
ENCODING 113
SWIDTH 556 0
DWIDTH 10 0
BBX 8 14 1 -4
BITMAP
1F
7F
F3
C3
C3
C3
C3
E3
FF
3F
03
03
03
03
ENDCHAR
STARTCHAR r
ENCODING 114
SWIDTH 333 0
DWIDTH 6 0
BBX 5 10 1 0
BITMAP
D8
F8
E0
C0
C0
C0
C0
C0
C0
C0
ENDCHAR
STARTCHAR s
ENCODING 115
SWIDTH 500 0
DWIDTH 9 0
BBX 7 10 1 0
BITMAP
7E
FE
C0
F8
7E
06
06
06
FE
FC
ENDCHAR
STARTCHAR t
ENCODING 116
SWIDTH 389 0
DWIDTH 7 0
BBX 7 13 0 0
BITMAP
30
30
30
FC
FC
30
30
30
30
30
30
3E
1E
ENDCHAR
STARTCHAR u
ENCODING 117
SWIDTH 556 0
DWIDTH 10 0
BBX 8 10 1 0
BITMAP
C3
C3
C3
C3
C3
C3
C3
E7
7F
7B
ENDCHAR
STARTCHAR v
ENCODING 118
SWIDTH 500 0
DWIDTH 9 0
BBX 7 10 1 0
BITMAP
82
C6
C6
C6
C6
EE
6C
6C
38
38
ENDCHAR
STARTCHAR w
ENCODING 119
SWIDTH 722 0
DWIDTH 13 0
BBX 11 10 1 0
BITMAP
C460
CE60
CE60
CE60
CE60
CA60
7BC0
7BC0
7BC0
3180
ENDCHAR
STARTCHAR x
ENCODING 120
SWIDTH 500 0
DWIDTH 9 0
BBX 9 10 0 0
BITMAP
6300
6300
7700
3E00
1C00
3E00
7700
6300
E380
4100
ENDCHAR
STARTCHAR y
ENCODING 121
SWIDTH 500 0
DWIDTH 9 0
BBX 8 14 1 -4
BITMAP
C3
C3
C7
C6
C6
E6
6C
7C
38
38
38
70
60
60
ENDCHAR
STARTCHAR z
ENCODING 122
SWIDTH 444 0
DWIDTH 8 0
BBX 8 10 0 0
BITMAP
7E
7F
06
0E
1C
38
70
E0
FF
FF
ENDCHAR
STARTCHAR braceleft
ENCODING 123
SWIDTH 389 0
DWIDTH 7 0
BBX 5 17 1 -4
BITMAP
38
30
70
70
70
70
70
60
C0
E0
70
70
70
70
70
30
38
ENDCHAR
STARTCHAR bar
ENCODING 124
SWIDTH 222 0
DWIDTH 4 0
BBX 2 18 1 -4
BITMAP
C0
C0
C0
C0
C0
C0
C0
C0
C0
C0
C0
C0
C0
C0
C0
C0
C0
C0
ENDCHAR
STARTCHAR braceright
ENCODING 125
SWIDTH 389 0
DWIDTH 7 0
BBX 5 17 1 -4
BITMAP
E0
60
70
70
70
70
70
30
18
38
70
70
70
70
70
60
E0
ENDCHAR
STARTCHAR asciitilde
ENCODING 126
SWIDTH 600 0
DWIDTH 11 0
BBX 9 3 1 3
BITMAP
7100
FF80
8700
ENDCHAR
STARTCHAR uni00A0
ENCODING 160
SWIDTH 305 0
DWIDTH 5 0
BBX 1 1 0 0
BITMAP
00
ENDCHAR
STARTCHAR exclamdown
ENCODING 161
SWIDTH 333 0
DWIDTH 6 0
BBX 2 13 2 -4
BITMAP
C0
C0
C0
00
C0
C0
C0
C0
C0
C0
C0
C0
C0
ENDCHAR
STARTCHAR cent
ENCODING 162
SWIDTH 611 0
DWIDTH 11 0
BBX 8 14 1 -1
BITMAP
0C
0C
3F
FF
EC
CC
CC
CC
EC
7F
1F
0C
0C
08
ENDCHAR
STARTCHAR sterling
ENCODING 163
SWIDTH 611 0
DWIDTH 11 0
BBX 11 13 0 0
BITMAP
03C0
0FE0
0C00
1C00
1C00
7FC0
7FC0
1C00
1C00
1C00
1C00
FFC0
FFC0
ENDCHAR
STARTCHAR currency
ENCODING 164
SWIDTH 611 0
DWIDTH 11 0
BBX 9 9 1 2
BITMAP
9C80
FF80
6300
C180
C180
C180
E300
FF00
FF80
ENDCHAR
STARTCHAR yen
ENCODING 165
SWIDTH 611 0
DWIDTH 11 0
BBX 9 13 1 0
BITMAP
C180
C180
E380
6300
F780
FF80
1C00
FF80
FF80
1C00
1C00
1C00
1C00
ENDCHAR
STARTCHAR brokenbar
ENCODING 166
SWIDTH 222 0
DWIDTH 4 0
BBX 2 15 1 -3
BITMAP
C0
C0
C0
C0
C0
C0
00
00
00
C0
C0
C0
C0
C0
C0
ENDCHAR
STARTCHAR section
ENCODING 167
SWIDTH 500 0
DWIDTH 9 0
BBX 7 13 1 0
BITMAP
7E
FE
C0
F0
FC
DE
C6
FE
3E
0E
06
FE
FC
ENDCHAR
STARTCHAR dieresis
ENCODING 168
SWIDTH 278 0
DWIDTH 5 0
BBX 7 2 -1 10
BITMAP
EE
44
ENDCHAR
STARTCHAR copyright
ENCODING 169
SWIDTH 800 0
DWIDTH 14 0
BBX 13 13 1 0
BITMAP
0F80
39C0
6060
CFB0
D890
D818
9818
D818
D890
CFB0
6060
39C0
0F80
ENDCHAR
STARTCHAR ordfeminine
ENCODING 170
SWIDTH 334 0
DWIDTH 6 0
BBX 6 7 0 6
BITMAP
78
0C
7C
4C
CC
CC
7C
ENDCHAR
STARTCHAR guillemotleft
ENCODING 171
SWIDTH 500 0
DWIDTH 9 0
BBX 7 7 1 1
BITMAP
36
66
EC
CC
6C
66
26
ENDCHAR
STARTCHAR logicalnot
ENCODING 172
SWIDTH 600 0
DWIDTH 11 0
BBX 9 6 1 1
BITMAP
FF80
FF80
0180
0180
0180
0180
ENDCHAR
STARTCHAR uni00AD
ENCODING 173
SWIDTH 333 0
DWIDTH 6 0
BBX 4 2 1 4
BITMAP
F0
F0
ENDCHAR
STARTCHAR registered
ENCODING 174
SWIDTH 800 0
DWIDTH 14 0
BBX 13 13 1 0
BITMAP
0F80
39C0
6060
CFB0
C890
C998
8F18
CA18
C910
C9B0
6060
39C0
0F80
ENDCHAR
STARTCHAR macron
ENCODING 175
SWIDTH 278 0
DWIDTH 5 0
BBX 5 1 0 11
BITMAP
F8
ENDCHAR
STARTCHAR degree
ENCODING 176
SWIDTH 400 0
DWIDTH 7 0
BBX 5 5 1 8
BITMAP
70
C8
88
C8
70
ENDCHAR
STARTCHAR plusminus
ENCODING 177
SWIDTH 600 0
DWIDTH 11 0
BBX 9 10 1 0
BITMAP
1800
1800
1800
FF80
FF80
1800
1800
0000
FF80
FF80
ENDCHAR
STARTCHAR twosuperior
ENCODING 178
SWIDTH 366 0
DWIDTH 7 0
BBX 6 8 0 5
BITMAP
F8
0C
0C
1C
70
E0
C0
FC
ENDCHAR
STARTCHAR threesuperior
ENCODING 179
SWIDTH 366 0
DWIDTH 7 0
BBX 6 8 0 5
BITMAP
FC
18
30
7C
0C
04
0C
F8
ENDCHAR
STARTCHAR acute
ENCODING 180
SWIDTH 278 0
DWIDTH 5 0
BBX 5 3 0 10
BITMAP
08
78
E0
ENDCHAR
STARTCHAR mu
ENCODING 181
SWIDTH 556 0
DWIDTH 10 0
BBX 8 14 1 -4
BITMAP
C3
C3
C3
C3
C3
C3
C3
E7
FF
FB
C0
C0
C0
C0
ENDCHAR
STARTCHAR paragraph
ENCODING 182
SWIDTH 620 0
DWIDTH 11 0
BBX 9 13 1 0
BITMAP
7F80
FF80
F980
F980
F980
F980
3980
0980
0980
0980
0980
0980
0980
ENDCHAR
STARTCHAR periodcentered
ENCODING 183
SWIDTH 305 0
DWIDTH 5 0
BBX 3 3 1 3
BITMAP
60
E0
40
ENDCHAR
STARTCHAR cedilla
ENCODING 184
SWIDTH 278 0
DWIDTH 5 0
BBX 5 4 0 -4
BITMAP
20
38
98
70
ENDCHAR
STARTCHAR onesuperior
ENCODING 185
SWIDTH 366 0
DWIDTH 7 0
BBX 6 8 0 5
BITMAP
70
F0
30
30
30
30
30
FC
ENDCHAR
STARTCHAR ordmasculine
ENCODING 186
SWIDTH 334 0
DWIDTH 6 0
BBX 6 7 0 6
BITMAP
78
C8
CC
CC
CC
48
78
ENDCHAR
STARTCHAR guillemotright
ENCODING 187
SWIDTH 500 0
DWIDTH 9 0
BBX 7 7 1 1
BITMAP
D8
CC
6E
66
6C
CC
C8
ENDCHAR
STARTCHAR onequarter
ENCODING 188
SWIDTH 916 0
DWIDTH 16 0
BBX 15 13 1 0
BITMAP
6030
E030
6060
60E0
60C0
6188
63BC
FB6C
064C
0ECC
0CFE
180C
180C
ENDCHAR
STARTCHAR onehalf
ENCODING 189
SWIDTH 916 0
DWIDTH 16 0
BBX 16 13 0 0
BITMAP
7018
F038
3030
3060
30E0
30C0
31BF
FF83
0307
060E
0E38
0C30
083F
ENDCHAR
STARTCHAR threequarters
ENCODING 190
SWIDTH 916 0
DWIDTH 16 0
BBX 16 13 1 0
BITMAP
F810
1830
6070
F860
0CC0
0DC0
1D9C
FB3C
076C
064C
0C7F
1C0C
180C
ENDCHAR
STARTCHAR questiondown
ENCODING 191
SWIDTH 500 0
DWIDTH 9 0
BBX 8 13 1 -4
BITMAP
08
1C
1C
00
08
1C
18
78
E0
C0
C0
FF
7F
ENDCHAR
STARTCHAR Agrave
ENCODING 192
SWIDTH 667 0
DWIDTH 12 0
BBX 12 16 0 0
BITMAP
0800
1F00
0100
0600
0F00
1F00
1980
3980
31C0
3EC0
7FE0
61E0
60E0
6060
E070
6060
ENDCHAR
STARTCHAR Aacute
ENCODING 193
SWIDTH 667 0
DWIDTH 12 0
BBX 12 16 0 0
BITMAP
0100
0F80
0800
0600
0F00
1F00
1980
3980
31C0
3EC0
7FE0
61E0
60E0
6060
E070
6060
ENDCHAR
STARTCHAR Acircumflex
ENCODING 194
SWIDTH 667 0
DWIDTH 12 0
BBX 12 17 0 0
BITMAP
0600
0F00
1980
0000
0600
0F00
1F00
1980
3980
31C0
3EC0
7FE0
61E0
60E0
6060
E070
6060
ENDCHAR
STARTCHAR Atilde
ENCODING 195
SWIDTH 667 0
DWIDTH 12 0
BBX 12 16 0 0
BITMAP
0C80
1780
0000
0600
0F00
1F00
1980
3980
31C0
3EC0
7FE0
61E0
60E0
6060
E070
6060
ENDCHAR
STARTCHAR Adieresis
ENCODING 196
SWIDTH 667 0
DWIDTH 12 0
BBX 12 16 0 0
BITMAP
1980
1980
0000
0600
0F00
1F00
1980
3980
31C0
3EC0
7FE0
61E0
60E0
6060
E070
6060
ENDCHAR
STARTCHAR Aring
ENCODING 197
SWIDTH 667 0
DWIDTH 12 0
BBX 12 17 0 0
BITMAP
0600
0900
0600
0000
0600
0F00
1F00
1980
3980
31C0
3EC0
7FE0
61E0
60E0
6060
E070
6060
ENDCHAR
STARTCHAR AE
ENCODING 198
SWIDTH 889 0
DWIDTH 16 0
BBX 16 13 0 0
BITMAP
03FF
07FF
0EC0
1CC0
18FE
37FE
3EC0
78C0
70C0
E0C0
E0C0
C0FF
C0FF
ENDCHAR
STARTCHAR Ccedilla
ENCODING 199
SWIDTH 611 0
DWIDTH 11 0
BBX 10 17 1 -4
BITMAP
3F80
7F80
F000
E000
C000
C000
C000
E000
E000
7000
3C00
1FC0
0780
0400
0700
1300
0E00
ENDCHAR
STARTCHAR Egrave
ENCODING 200
SWIDTH 556 0
DWIDTH 10 0
BBX 8 16 1 0
BITMAP
30
3C
04
FF
FF
E0
E0
FF
FF
E0
E0
E0
E0
E0
FF
7F
ENDCHAR
STARTCHAR Eacute
ENCODING 201
SWIDTH 556 0
DWIDTH 10 0
BBX 8 16 1 0
BITMAP
0E
3E
20
FF
FF
E0
E0
FF
FF
E0
E0
E0
E0
E0
FF
7F
ENDCHAR
STARTCHAR Ecircumflex
ENCODING 202
SWIDTH 556 0
DWIDTH 10 0
BBX 8 17 1 0
BITMAP
18
3C
66
00
FF
FF
E0
E0
FF
FF
E0
E0
E0
E0
E0
FF
7F
ENDCHAR
STARTCHAR Edieresis
ENCODING 203
SWIDTH 556 0
DWIDTH 10 0
BBX 8 16 1 0
BITMAP
66
66
00
FF
FF
E0
E0
FF
FF
E0
E0
E0
E0
E0
FF
7F
ENDCHAR
STARTCHAR Igrave
ENCODING 204
SWIDTH 278 0
DWIDTH 5 0
BBX 5 16 0 0
BITMAP
C0
F8
18
20
70
70
70
70
70
70
70
70
70
70
70
20
ENDCHAR
STARTCHAR Iacute
ENCODING 205
SWIDTH 278 0
DWIDTH 5 0
BBX 5 16 0 0
BITMAP
18
F8
C0
20
70
70
70
70
70
70
70
70
70
70
70
20
ENDCHAR
STARTCHAR Icircumflex
ENCODING 206
SWIDTH 278 0
DWIDTH 5 0
BBX 5 17 0 0
BITMAP
20
50
D8
00
20
70
70
70
70
70
70
70
70
70
70
70
20
ENDCHAR
STARTCHAR Idieresis
ENCODING 207
SWIDTH 278 0
DWIDTH 5 0
BBX 7 16 -1 0
BITMAP
44
EE
00
10
38
38
38
38
38
38
38
38
38
38
38
10
ENDCHAR
STARTCHAR Eth
ENCODING 208
SWIDTH 667 0
DWIDTH 12 0
BBX 11 13 0 0
BITMAP
7C00
7F00
6780
61C0
60E0
FCE0
FC60
6060
6060
60E0
61E0
7FC0
7F80
ENDCHAR
STARTCHAR Ntilde
ENCODING 209
SWIDTH 611 0
DWIDTH 11 0
BBX 9 16 1 0
BITMAP
3A00
2E00
0000
E180
E180
F180
F980
DF80
CF80
C780
C180
C180
C180
C180
C180
C180
ENDCHAR
STARTCHAR Ograve
ENCODING 210
SWIDTH 722 0
DWIDTH 13 0
BBX 11 16 1 0
BITMAP
1800
1F00
0300
1F00
3F80
71C0
E0E0
E0E0
C060
C060
C060
E0E0
E0E0
71C0
3F80
1F00
ENDCHAR
STARTCHAR Oacute
ENCODING 211
SWIDTH 722 0
DWIDTH 13 0
BBX 11 16 1 0
BITMAP
0300
1F00
1800
1F00
3F80
71C0
E0E0
E0E0
C060
C060
C060
E0E0
E0E0
71C0
3F80
1F00
ENDCHAR
STARTCHAR Ocircumflex
ENCODING 212
SWIDTH 722 0
DWIDTH 13 0
BBX 11 17 1 0
BITMAP
0400
0A00
1B00
0000
1F00
3F80
71C0
E0E0
E0E0
C060
C060
C060
E0E0
E0E0
71C0
3F80
1F00
ENDCHAR
STARTCHAR Otilde
ENCODING 213
SWIDTH 722 0
DWIDTH 13 0
BBX 11 16 1 0
BITMAP
1880
1F00
0000
1F00
3F80
71C0
E0E0
E0E0
C060
C060
C060
E0E0
E0E0
71C0
3F80
1F00
ENDCHAR
STARTCHAR Odieresis
ENCODING 214
SWIDTH 722 0
DWIDTH 13 0
BBX 11 16 1 0
BITMAP
1100
3B80
0000
1F00
3F80
71C0
E0E0
E0E0
C060
C060
C060
E0E0
E0E0
71C0
3F80
1F00
ENDCHAR
STARTCHAR multiply
ENCODING 215
SWIDTH 600 0
DWIDTH 11 0
BBX 9 10 1 0
BITMAP
4100
E380
6700
3E00
1C00
1C00
3E00
6700
E380
4100
ENDCHAR
STARTCHAR Oslash
ENCODING 216
SWIDTH 722 0
DWIDTH 13 0
BBX 11 17 1 -2
BITMAP
0080
01C0
1F80
3F80
73C0
E3E0
E6E0
C660
CC60
CC60
FCE0
F8E0
79C0
3F80
7F00
6000
6000
ENDCHAR
STARTCHAR Ugrave
ENCODING 217
SWIDTH 611 0
DWIDTH 11 0
BBX 9 16 1 0
BITMAP
3000
3E00
0600
4300
E380
E380
E380
C180
C180
C180
C180
C180
C180
E380
7F00
3E00
ENDCHAR
STARTCHAR Uacute
ENCODING 218
SWIDTH 611 0
DWIDTH 11 0
BBX 9 16 1 0
BITMAP
0600
3E00
3000
4300
E380
E380
E380
C180
C180
C180
C180
C180
C180
E380
7F00
3E00
ENDCHAR
STARTCHAR Ucircumflex
ENCODING 219
SWIDTH 611 0
DWIDTH 11 0
BBX 9 17 1 0
BITMAP
0800
1400
3600
0000
4300
E380
E380
E380
C180
C180
C180
C180
C180
C180
E380
7F00
3E00
ENDCHAR
STARTCHAR Udieresis
ENCODING 220
SWIDTH 611 0
DWIDTH 11 0
BBX 9 16 1 0
BITMAP
2200
7700
0000
4300
E380
E380
E380
C180
C180
C180
C180
C180
C180
E380
7F00
3E00
ENDCHAR
STARTCHAR Yacute
ENCODING 221
SWIDTH 556 0
DWIDTH 10 0
BBX 10 16 0 0
BITMAP
0300
1F00
1000
C0C0
E1C0
6180
7380
3300
3F00
1E00
0C00
0C00
0C00
0C00
0C00
0C00
ENDCHAR
STARTCHAR Thorn
ENCODING 222
SWIDTH 556 0
DWIDTH 10 0
BBX 9 13 1 0
BITMAP
C000
E000
FF00
FF80
E180
E380
E780
FF00
FC00
F000
E000
E000
C000
ENDCHAR
STARTCHAR germandbls
ENCODING 223
SWIDTH 556 0
DWIDTH 10 0
BBX 10 13 0 0
BITMAP
3E00
7F00
6300
6300
E600
EC00
7C00
6F00
6180
61C0
6180
7F80
7F00
ENDCHAR
STARTCHAR agrave
ENCODING 224
SWIDTH 556 0
DWIDTH 10 0
BBX 7 13 1 0
BITMAP
78
1C
00
FC
FE
06
1E
7E
E6
C6
C6
FE
7A
ENDCHAR
STARTCHAR aacute
ENCODING 225
SWIDTH 556 0
DWIDTH 10 0
BBX 7 13 1 0
BITMAP
1C
78
00
FC
FE
06
1E
7E
E6
C6
C6
FE
7A
ENDCHAR
STARTCHAR acircumflex
ENCODING 226
SWIDTH 556 0
DWIDTH 10 0
BBX 7 13 1 0
BITMAP
18
3C
66
FC
FE
06
1E
7E
E6
C6
C6
FE
7A
ENDCHAR
STARTCHAR atilde
ENCODING 227
SWIDTH 556 0
DWIDTH 10 0
BBX 7 13 1 0
BITMAP
32
5C
00
FC
FE
06
1E
7E
E6
C6
C6
FE
7A
ENDCHAR
STARTCHAR adieresis
ENCODING 228
SWIDTH 556 0
DWIDTH 10 0
BBX 7 13 1 0
BITMAP
66
66
00
FC
FE
06
1E
7E
E6
C6
C6
FE
7A
ENDCHAR
STARTCHAR aring
ENCODING 229
SWIDTH 556 0
DWIDTH 10 0
BBX 7 15 1 0
BITMAP
18
24
24
18
00
FC
FE
06
1E
7E
E6
C6
C6
FE
7A
ENDCHAR
STARTCHAR ae
ENCODING 230
SWIDTH 778 0
DWIDTH 14 0
BBX 14 10 0 0
BITMAP
7EF0
7FF8
071C
0FFC
7FFC
E300
C300
E780
FFFC
7CFC
ENDCHAR
STARTCHAR ccedilla
ENCODING 231
SWIDTH 500 0
DWIDTH 9 0
BBX 8 14 1 -4
BITMAP
3F
FF
E0
C0
C0
C0
E0
F0
7F
1F
10
1C
06
3C
ENDCHAR
STARTCHAR egrave
ENCODING 232
SWIDTH 556 0
DWIDTH 10 0
BBX 8 13 1 0
BITMAP
38
1E
00
3C
7E
E7
C3
FF
FF
C0
E0
7F
3F
ENDCHAR
STARTCHAR eacute
ENCODING 233
SWIDTH 556 0
DWIDTH 10 0
BBX 8 13 1 0
BITMAP
1E
38
00
3C
7E
E7
C3
FF
FF
C0
E0
7F
3F
ENDCHAR
STARTCHAR ecircumflex
ENCODING 234
SWIDTH 556 0
DWIDTH 10 0
BBX 8 13 1 0
BITMAP
18
3C
66
3C
7E
E7
C3
FF
FF
C0
E0
7F
3F
ENDCHAR
STARTCHAR edieresis
ENCODING 235
SWIDTH 556 0
DWIDTH 10 0
BBX 8 13 1 0
BITMAP
66
66
00
3C
7E
E7
C3
FF
FF
C0
E0
7F
3F
ENDCHAR
STARTCHAR igrave
ENCODING 236
SWIDTH 278 0
DWIDTH 5 0
BBX 5 13 0 0
BITMAP
F0
78
00
20
70
70
70
70
70
70
70
70
20
ENDCHAR
STARTCHAR iacute
ENCODING 237
SWIDTH 278 0
DWIDTH 5 0
BBX 5 13 0 0
BITMAP
78
F0
00
20
70
70
70
70
70
70
70
70
20
ENDCHAR
STARTCHAR icircumflex
ENCODING 238
SWIDTH 278 0
DWIDTH 5 0
BBX 5 13 0 0
BITMAP
70
50
88
20
70
70
70
70
70
70
70
70
20
ENDCHAR
STARTCHAR idieresis
ENCODING 239
SWIDTH 278 0
DWIDTH 5 0
BBX 7 13 -1 0
BITMAP
EE
44
00
10
38
38
38
38
38
38
38
38
10
ENDCHAR
STARTCHAR eth
ENCODING 240
SWIDTH 556 0
DWIDTH 10 0
BBX 8 13 1 0
BITMAP
76
7C
3E
26
3F
7F
E7
C3
C3
C3
E7
7E
3C
ENDCHAR
STARTCHAR ntilde
ENCODING 241
SWIDTH 556 0
DWIDTH 10 0
BBX 8 13 1 0
BITMAP
3A
5C
00
DC
FE
E7
C3
C3
C3
C3
C3
C3
C3
ENDCHAR
STARTCHAR ograve
ENCODING 242
SWIDTH 556 0
DWIDTH 10 0
BBX 8 13 1 0
BITMAP
78
1C
00
3C
7E
E7
C3
C3
C3
C3
E7
7E
3C
ENDCHAR
STARTCHAR oacute
ENCODING 243
SWIDTH 556 0
DWIDTH 10 0
BBX 8 13 1 0
BITMAP
1E
38
00
3C
7E
E7
C3
C3
C3
C3
E7
7E
3C
ENDCHAR
STARTCHAR ocircumflex
ENCODING 244
SWIDTH 556 0
DWIDTH 10 0
BBX 8 13 1 0
BITMAP
18
3C
66
3C
7E
E7
C3
C3
C3
C3
E7
7E
3C
ENDCHAR
STARTCHAR otilde
ENCODING 245
SWIDTH 556 0
DWIDTH 10 0
BBX 8 13 1 0
BITMAP
32
5C
00
3C
7E
E7
C3
C3
C3
C3
E7
7E
3C
ENDCHAR
STARTCHAR odieresis
ENCODING 246
SWIDTH 556 0
DWIDTH 10 0
BBX 8 13 1 0
BITMAP
66
66
00
3C
7E
E7
C3
C3
C3
C3
E7
7E
3C
ENDCHAR
STARTCHAR divide
ENCODING 247
SWIDTH 600 0
DWIDTH 11 0
BBX 9 11 1 -1
BITMAP
1C00
1C00
1C00
0000
FF80
FF80
0000
0000
1C00
1C00
1C00
ENDCHAR
STARTCHAR oslash
ENCODING 248
SWIDTH 556 0
DWIDTH 10 0
BBX 8 12 1 -1
BITMAP
03
3E
7E
EF
CB
DB
D3
F3
F7
7E
7C
C0
ENDCHAR
STARTCHAR ugrave
ENCODING 249
SWIDTH 556 0
DWIDTH 10 0
BBX 8 13 1 0
BITMAP
78
1C
00
C3
C3
C3
C3
C3
C3
C3
E7
7F
7B
ENDCHAR
STARTCHAR uacute
ENCODING 250
SWIDTH 556 0
DWIDTH 10 0
BBX 8 13 1 0
BITMAP
1E
38
00
C3
C3
C3
C3
C3
C3
C3
E7
7F
7B
ENDCHAR
STARTCHAR ucircumflex
ENCODING 251
SWIDTH 556 0
DWIDTH 10 0
BBX 8 13 1 0
BITMAP
18
3C
66
C3
C3
C3
C3
C3
C3
C3
E7
7F
7B
ENDCHAR
STARTCHAR udieresis
ENCODING 252
SWIDTH 556 0
DWIDTH 10 0
BBX 8 13 1 0
BITMAP
66
66
00
C3
C3
C3
C3
C3
C3
C3
E7
7F
7B
ENDCHAR
STARTCHAR yacute
ENCODING 253
SWIDTH 500 0
DWIDTH 9 0
BBX 8 17 1 -4
BITMAP
3C
78
00
C3
C3
C7
C6
C6
E6
6C
7C
38
38
38
70
60
60
ENDCHAR
STARTCHAR thorn
ENCODING 254
SWIDTH 556 0
DWIDTH 10 0
BBX 8 17 1 -4
BITMAP
C0
C0
C0
F8
FE
CF
C3
C3
C3
C3
C7
FF
FC
C0
C0
C0
C0
ENDCHAR
STARTCHAR ydieresis
ENCODING 255
SWIDTH 500 0
DWIDTH 9 0
BBX 8 17 1 -4
BITMAP
EE
44
00
C3
C3
C7
C6
C6
E6
6C
7C
38
38
38
70
60
60
ENDCHAR
STARTCHAR .notdef
ENCODING -1
SWIDTH 500 0
DWIDTH 9 0
BBX 9 13 0 0
BITMAP
FF80
C180
C180
A280
9480
9480
8880
9480
9480
A280
C180
C180
FF80
ENDCHAR
STARTCHAR quoteright
ENCODING -1
SWIDTH 222 0
DWIDTH 4 0
BBX 4 5 0 8
BITMAP
30
70
60
60
C0
ENDCHAR
STARTCHAR quoteleft
ENCODING -1
SWIDTH 222 0
DWIDTH 4 0
BBX 4 5 0 8
BITMAP
C0
E0
60
60
30
ENDCHAR
STARTCHAR fraction
ENCODING -1
SWIDTH 167 0
DWIDTH 3 0
BBX 9 13 -3 0
BITMAP
0180
0180
0300
0700
0600
0C00
1C00
1800
3000
7000
6000
C000
C000
ENDCHAR
STARTCHAR florin
ENCODING -1
SWIDTH 611 0
DWIDTH 11 0
BBX 11 17 0 -4
BITMAP
01E0
03E0
0700
0700
0600
3F80
3FC0
0E00
0E00
0C00
0C00
0C00
0C00
1C00
1C00
F800
F000
ENDCHAR
STARTCHAR quotedblleft
ENCODING -1
SWIDTH 389 0
DWIDTH 7 0
BBX 7 5 0 8
BITMAP
C8
EC
6C
6E
26
ENDCHAR
STARTCHAR guilsinglleft
ENCODING -1
SWIDTH 333 0
DWIDTH 6 0
BBX 4 7 1 1
BITMAP
30
70
60
E0
60
30
30
ENDCHAR
STARTCHAR guilsinglright
ENCODING -1
SWIDTH 333 0
DWIDTH 6 0
BBX 4 7 1 1
BITMAP
C0
E0
60
70
60
C0
C0
ENDCHAR
STARTCHAR fi
ENCODING -1
SWIDTH 611 0
DWIDTH 11 0
BBX 10 13 0 0
BITMAP
1F80
3FC0
3080
FF80
FFC0
31C0
31C0
31C0
31C0
31C0
31C0
31C0
3080
ENDCHAR
STARTCHAR fl
ENCODING -1
SWIDTH 611 0
DWIDTH 11 0
BBX 10 13 0 0
BITMAP
1F80
3FC0
31C0
FDC0
FDC0
31C0
31C0
31C0
31C0
31C0
31C0
31C0
3080
ENDCHAR
STARTCHAR endash
ENCODING -1
SWIDTH 500 0
DWIDTH 9 0
BBX 9 1 0 4
BITMAP
FF80
ENDCHAR
STARTCHAR dagger
ENCODING -1
SWIDTH 444 0
DWIDTH 8 0
BBX 6 13 1 0
BITMAP
30
30
30
FC
FC
30
30
30
30
30
30
30
30
ENDCHAR
STARTCHAR daggerdbl
ENCODING -1
SWIDTH 444 0
DWIDTH 8 0
BBX 6 13 1 0
BITMAP
30
30
30
FC
FC
30
30
30
FC
FC
30
30
30
ENDCHAR
STARTCHAR bullet
ENCODING -1
SWIDTH 500 0
DWIDTH 9 0
BBX 7 6 1 3
BITMAP
38
7C
FE
FE
7C
38
ENDCHAR
STARTCHAR quotesinglbase
ENCODING -1
SWIDTH 222 0
DWIDTH 4 0
BBX 4 5 0 -2
BITMAP
30
70
60
60
C0
ENDCHAR
STARTCHAR quotedblbase
ENCODING -1
SWIDTH 389 0
DWIDTH 7 0
BBX 7 5 0 -2
BITMAP
26
6E
6C
EC
C8
ENDCHAR
STARTCHAR quotedblright
ENCODING -1
SWIDTH 389 0
DWIDTH 7 0
BBX 7 5 0 8
BITMAP
26
6E
6C
EC
C8
ENDCHAR
STARTCHAR ellipsis
ENCODING -1
SWIDTH 1000 0
DWIDTH 18 0
BBX 14 3 2 0
BITMAP
0008
C30C
C30C
ENDCHAR
STARTCHAR perthousand
ENCODING -1
SWIDTH 1000 0
DWIDTH 18 0
BBX 18 13 0 0
BITMAP
70C000
F8C000
CD8000
CD8000
CB0000
7A0000
76C380
05E780
0F3CC0
1B3CC0
1B3CC0
31E7C0
30E380
ENDCHAR
STARTCHAR circumflex
ENCODING -1
SWIDTH 278 0
DWIDTH 5 0
BBX 5 3 0 10
BITMAP
70
50
88
ENDCHAR
STARTCHAR tilde
ENCODING -1
SWIDTH 278 0
DWIDTH 5 0
BBX 6 2 0 11
BITMAP
C4
F8
ENDCHAR
STARTCHAR breve
ENCODING -1
SWIDTH 278 0
DWIDTH 5 0
BBX 5 3 0 10
BITMAP
88
F8
20
ENDCHAR
STARTCHAR dotaccent
ENCODING -1
SWIDTH 278 0
DWIDTH 5 0
BBX 3 2 1 10
BITMAP
E0
40
ENDCHAR
STARTCHAR ring
ENCODING -1
SWIDTH 278 0
DWIDTH 5 0
BBX 3 4 1 10
BITMAP
E0
A0
A0
E0
ENDCHAR
STARTCHAR hungarumlaut
ENCODING -1
SWIDTH 278 0
DWIDTH 5 0
BBX 7 4 -1 9
BITMAP
26
6E
CC
98
ENDCHAR
STARTCHAR ogonek
ENCODING -1
SWIDTH 278 0
DWIDTH 5 0
BBX 4 4 1 -4
BITMAP
70
80
80
E0
ENDCHAR
STARTCHAR caron
ENCODING -1
SWIDTH 278 0
DWIDTH 5 0
BBX 5 3 0 10
BITMAP
D8
50
20
ENDCHAR
STARTCHAR emdash
ENCODING -1
SWIDTH 1000 0
DWIDTH 18 0
BBX 18 1 0 4
BITMAP
FFFFC0
ENDCHAR
STARTCHAR Lslash
ENCODING -1
SWIDTH 444 0
DWIDTH 8 0
BBX 8 13 0 0
BITMAP
60
70
70
70
7C
7C
F8
F0
F0
70
70
7F
3F
ENDCHAR
STARTCHAR OE
ENCODING -1
SWIDTH 1000 0
DWIDTH 18 0
BBX 16 13 1 0
BITMAP
1E7F
7FFF
71E0
E0E0
C0FF
C0FF
C0E0
C0E0
C0E0
E0E0
71E0
3FFF
1E7F
ENDCHAR
STARTCHAR dotlessi
ENCODING -1
SWIDTH 278 0
DWIDTH 5 0
BBX 3 10 1 0
BITMAP
40
E0
E0
E0
E0
E0
E0
E0
E0
40
ENDCHAR
STARTCHAR lslash
ENCODING -1
SWIDTH 278 0
DWIDTH 5 0
BBX 5 13 0 0
BITMAP
20
70
70
70
78
78
F0
F0
70
70
70
70
20
ENDCHAR
STARTCHAR oe
ENCODING -1
SWIDTH 833 0
DWIDTH 15 0
BBX 15 10 0 0
BITMAP
1C78
7FFC
638C
E3FE
E1FE
E180
6380
63C0
7FFE
1E7E
ENDCHAR
STARTCHAR trademark
ENCODING -1
SWIDTH 1000 0
DWIDTH 18 0
BBX 16 8 1 5
BITMAP
FDC7
31E7
31E7
31AF
31BF
31BB
319B
319B
ENDCHAR
STARTCHAR minus
ENCODING -1
SWIDTH 600 0
DWIDTH 11 0
BBX 9 2 1 4
BITMAP
FF80
FF80
ENDCHAR
STARTCHAR Scaron
ENCODING -1
SWIDTH 611 0
DWIDTH 11 0
BBX 9 17 1 0
BITMAP
3300
1600
0C00
0000
7F00
FF00
C000
E000
FC00
7F00
0780
0180
0180
0180
0380
FF00
FE00
ENDCHAR
STARTCHAR Ydieresis
ENCODING -1
SWIDTH 556 0
DWIDTH 10 0
BBX 10 16 0 0
BITMAP
3300
3300
0000
C0C0
E1C0
6180
7380
3300
3F00
1E00
0C00
0C00
0C00
0C00
0C00
0C00
ENDCHAR
STARTCHAR Zcaron
ENCODING -1
SWIDTH 500 0
DWIDTH 9 0
BBX 9 17 0 0
BITMAP
3200
1600
0C00
0000
7F00
7F00
0300
0300
0700
0E00
1C00
3800
7000
6000
6000
FF80
7F80
ENDCHAR
STARTCHAR scaron
ENCODING -1
SWIDTH 500 0
DWIDTH 9 0
BBX 7 13 1 0
BITMAP
6C
28
10
7E
FE
C0
F8
7E
06
06
06
FE
FC
ENDCHAR
STARTCHAR zcaron
ENCODING -1
SWIDTH 444 0
DWIDTH 8 0
BBX 8 13 0 0
BITMAP
66
3C
18
7E
7F
06
0E
1C
38
70
E0
FF
FF
ENDCHAR
STARTCHAR Delta
ENCODING -1
SWIDTH 709 0
DWIDTH 13 0
BBX 12 13 0 0
BITMAP
0700
0700
0F80
0D80
1980
18C0
18C0
30E0
3060
6060
6030
7FF0
FFF0
ENDCHAR
STARTCHAR Omega
ENCODING -1
SWIDTH 786 0
DWIDTH 14 0
BBX 12 12 1 0
BITMAP
0F80
3FC0
70E0
E070
C030
C030
C030
C030
6060
2040
F8F0
F9F0
ENDCHAR
STARTCHAR pi
ENCODING -1
SWIDTH 641 0
DWIDTH 12 0
BBX 11 9 0 0
BITMAP
FFE0
FFE0
31C0
31C0
31C0
31C0
31C0
31C0
60C0
ENDCHAR
STARTCHAR Euro
ENCODING -1
SWIDTH 611 0
DWIDTH 11 0
BBX 11 13 0 0
BITMAP
0FE0
1FE0
3800
FF00
FF00
3000
FF00
FF00
3800
1C00
1F00
07E0
03E0
ENDCHAR
STARTCHAR estimated
ENCODING -1
SWIDTH 844 0
DWIDTH 15 0
BBX 14 13 1 0
BITMAP
0F80
3060
4010
C018
C018
C018
C01C
FFE0
C000
C000
4000
2030
1FC0
ENDCHAR
STARTCHAR partialdiff
ENCODING -1
SWIDTH 610 0
DWIDTH 11 0
BBX 9 14 1 0
BITMAP
3800
FE00
0700
0300
0180
1980
7F80
E380
C180
C180
C300
C300
7E00
3C00
ENDCHAR
STARTCHAR product
ENCODING -1
SWIDTH 767 0
DWIDTH 14 0
BBX 13 14 0 -2
BITMAP
FFF8
FFF8
3860
3860
3860
3860
3860
3860
3860
3860
3860
3860
3860
3860
ENDCHAR
STARTCHAR summation
ENCODING -1
SWIDTH 602 0
DWIDTH 11 0
BBX 10 14 0 -2
BITMAP
7FC0
7FC0
7000
3800
1C00
0E00
0700
0600
0C00
1800
3000
7000
7FC0
FFC0
ENDCHAR
STARTCHAR uni2219
ENCODING -1
SWIDTH 305 0
DWIDTH 5 0
BBX 3 3 1 3
BITMAP
60
E0
40
ENDCHAR
STARTCHAR radical
ENCODING -1
SWIDTH 626 0
DWIDTH 11 0
BBX 10 17 1 -3
BITMAP
0040
0040
00C0
00C0
0080
0080
0180
0180
E100
E100
3300
3300
1200
1A00
1E00
0C00
0C00
ENDCHAR
STARTCHAR infinity
ENCODING -1
SWIDTH 799 0
DWIDTH 14 0
BBX 12 5 1 2
BITMAP
78F0
8710
8610
CD10
70E0
ENDCHAR
STARTCHAR integral
ENCODING -1
SWIDTH 395 0
DWIDTH 7 0
BBX 7 18 0 -3
BITMAP
0E
1E
18
10
10
10
10
10
10
18
18
18
18
18
18
10
F0
E0
ENDCHAR
STARTCHAR approxequal
ENCODING -1
SWIDTH 590 0
DWIDTH 11 0
BBX 9 6 1 2
BITMAP
7080
DF00
8600
2000
F980
8700
ENDCHAR
STARTCHAR notequal
ENCODING -1
SWIDTH 590 0
DWIDTH 11 0
BBX 9 8 1 1
BITMAP
0600
0400
FF80
0800
1800
FF80
3000
2000
ENDCHAR
STARTCHAR lessequal
ENCODING -1
SWIDTH 590 0
DWIDTH 11 0
BBX 9 11 1 0
BITMAP
0180
0700
1C00
7000
8000
6000
1C00
0700
0180
0000
FF80
ENDCHAR
STARTCHAR greaterequal
ENCODING -1
SWIDTH 590 0
DWIDTH 11 0
BBX 9 11 1 0
BITMAP
8000
E000
1C00
0700
0180
0700
1C00
7000
C000
0000
FF80
ENDCHAR
STARTCHAR lozenge
ENCODING -1
SWIDTH 626 0
DWIDTH 11 0
BBX 9 14 1 -1
BITMAP
0C00
1C00
3600
3200
6300
6100
C180
C180
6100
6300
3200
3600
1C00
1C00
ENDCHAR
STARTCHAR uni02C9
ENCODING -1
SWIDTH 278 0
DWIDTH 5 0
BBX 5 1 0 11
BITMAP
F8
ENDCHAR
STARTCHAR uni03A9
ENCODING -1
SWIDTH 786 0
DWIDTH 14 0
BBX 12 12 1 0
BITMAP
0F80
3FC0
70E0
E070
C030
C030
C030
C030
6060
2040
F8F0
F9F0
ENDCHAR
STARTCHAR afii61289
ENCODING -1
SWIDTH 552 0
DWIDTH 10 0
BBX 8 13 1 0
BITMAP
3C
76
62
66
66
6C
68
78
60
E0
61
3F
1E
ENDCHAR
STARTCHAR uni03BC
ENCODING -1
SWIDTH 556 0
DWIDTH 10 0
BBX 8 14 1 -4
BITMAP
C3
C3
C3
C3
C3
C3
C3
E7
FF
FB
C0
C0
C0
C0
ENDCHAR
STARTCHAR uni2215
ENCODING -1
SWIDTH 167 0
DWIDTH 3 0
BBX 9 13 -3 0
BITMAP
0180
0180
0300
0700
0600
0C00
1C00
1800
3000
7000
6000
C000
C000
ENDCHAR
ENDFONT
